<?xml version="1.0" standalone="no"?>
<!DOCTYPE svg PUBLIC "-//W3C//DTD SVG 20010904//EN"
 "http://www.w3.org/TR/2001/REC-SVG-20010904/DTD/svg10.dtd">
<svg version="1.0" xmlns="http://www.w3.org/2000/svg"
 width="512.000000pt" height="512.000000pt" viewBox="0 0 512.000000 512.000000"
 preserveAspectRatio="xMidYMid meet">

<g transform="translate(0.000000,512.000000) scale(0.100000,-0.100000)"
fill="#000000" stroke="none">
<path d="M1765 4515 c-14 -13 -25 -30 -25 -36 0 -27 184 -445 202 -461 11 -10
30 -18 42 -18 26 0 66 38 66 62 0 30 -181 443 -202 461 -28 24 -55 21 -83 -8z"/>
<path d="M2550 4447 c-106 -56 -119 -193 -27 -274 119 -104 308 14 267 167
-30 110 -141 160 -240 107z"/>
<path d="M3308 4348 c-20 -15 -108 -232 -108 -265 0 -47 56 -77 100 -53 21 11
110 227 110 269 0 50 -62 80 -102 49z"/>
<path d="M4194 4148 c-62 -58 -74 -87 -50 -123 13 -19 25 -25 53 -25 30 0 44
8 84 49 36 35 49 56 49 77 0 35 -8 47 -37 63 -34 17 -40 15 -99 -41z"/>
<path d="M980 4140 c-47 -47 -45 -49 354 -449 333 -334 378 -374 406 -374 40
0 63 23 63 63 0 28 -40 73 -374 406 -400 399 -402 401 -449 354z"/>
<path d="M2581 4034 c-19 -24 -21 -40 -21 -146 0 -114 1 -120 26 -144 19 -20
31 -24 52 -19 50 12 52 18 52 166 0 131 -1 139 -22 153 -33 23 -64 19 -87 -10z"/>
<path d="M3503 3458 c-455 -455 -503 -506 -503 -535 0 -36 29 -63 69 -63 20 0
132 107 523 498 453 452 498 500 498 530 0 37 -30 72 -62 72 -16 0 -163 -140
-525 -502z"/>
<path d="M2030 3898 c-58 -40 -75 -72 -75 -143 0 -71 17 -103 75 -142 46 -32
124 -32 171 0 107 72 107 212 0 284 -47 32 -125 32 -171 1z"/>
<path d="M3060 3902 c-100 -55 -117 -190 -34 -269 55 -52 152 -57 215 -13 36
26 69 90 69 135 0 45 -34 109 -71 135 -45 33 -131 38 -179 12z"/>
<path d="M2581 3624 c-20 -25 -21 -39 -21 -279 0 -240 1 -254 21 -279 23 -29
54 -33 87 -10 22 15 22 17 22 289 0 272 0 274 -22 289 -33 23 -64 19 -87 -10z"/>
<path d="M2205 3485 c-14 -13 -25 -29 -25 -36 0 -22 162 -419 177 -434 15 -16
60 -20 79 -7 6 4 16 17 23 30 10 20 2 49 -70 230 -44 114 -90 215 -101 225
-28 24 -55 21 -83 -8z"/>
<path d="M2963 3488 c-22 -25 -173 -396 -173 -426 0 -10 7 -28 16 -40 19 -27
74 -30 96 -4 20 23 168 402 168 430 0 29 -34 62 -63 62 -13 0 -33 -10 -44 -22z"/>
<path d="M550 3367 c-18 -9 -26 -22 -28 -47 -1 -19 2 -41 6 -48 12 -19 326
-142 361 -142 54 0 82 68 42 104 -15 14 -265 118 -336 139 -11 4 -31 1 -45 -6z"/>
<path d="M4375 3311 c-82 -37 -160 -73 -171 -79 -30 -16 -39 -58 -19 -88 28
-43 51 -40 226 37 90 39 170 77 178 85 23 21 18 74 -8 96 -13 10 -31 18 -40
18 -9 -1 -83 -31 -166 -69z"/>
<path d="M1860 3260 c-43 -43 -31 -63 143 -237 175 -175 192 -186 235 -140 42
45 33 60 -141 234 -174 174 -194 186 -237 143z"/>
<path d="M1063 3170 c-50 -20 -52 -90 -3 -115 15 -8 247 -100 515 -206 421
-165 491 -189 512 -180 35 16 48 52 32 86 -13 25 -69 49 -519 226 -278 109
-507 198 -510 198 -3 0 -15 -4 -27 -9z"/>
<path d="M3589 2964 c-472 -211 -475 -213 -447 -272 29 -59 29 -59 498 148
239 106 443 199 453 208 25 22 22 77 -5 96 -12 9 -32 16 -43 15 -11 -1 -216
-88 -456 -195z"/>
<path d="M2594 2885 c-34 -23 -304 -390 -304 -412 0 -24 9 -36 174 -230 115
-137 132 -153 160 -153 17 0 36 4 42 8 29 20 294 342 299 364 6 22 -16 56
-144 226 -168 222 -178 232 -227 197z m-20 -363 c23 -37 102 -29 111 11 3 12
6 40 7 62 l3 40 58 -76 c31 -42 57 -79 57 -84 0 -10 -173 -215 -182 -215 -4 0
-47 48 -97 107 l-90 106 30 41 c17 23 43 58 57 78 l27 37 5 -47 c3 -26 9 -53
14 -60z"/>
<path d="M1287 2742 c-10 -10 -17 -33 -17 -50 0 -31 13 -41 385 -289 212 -141
383 -258 381 -260 -2 -2 -221 75 -487 172 -317 115 -492 174 -506 170 -13 -3
-30 -17 -39 -30 -14 -21 -14 -30 -4 -54 10 -26 27 -35 123 -70 62 -23 247 -90
412 -151 165 -60 292 -109 282 -110 -10 0 -206 32 -437 70 -231 39 -435 70
-454 70 -42 0 -66 -22 -66 -59 0 -54 12 -58 450 -131 227 -38 415 -71 418 -74
3 -3 -199 -6 -450 -6 -428 0 -456 -1 -471 -18 -15 -16 -17 -46 -17 -205 l0
-187 -50 0 c-85 0 -90 -11 -90 -194 0 -140 2 -156 21 -180 l20 -26 765 0 764
0 0 -246 c0 -154 4 -253 11 -265 21 -41 86 -44 111 -5 4 6 8 125 8 264 l0 252
275 0 275 0 0 -239 c0 -133 4 -251 10 -266 13 -34 53 -49 88 -32 l27 12 5 260
5 260 766 3 c763 2 766 2 785 23 16 18 19 40 22 152 6 203 -4 227 -89 227
l-49 0 0 183 c0 149 -3 187 -16 205 l-15 22 -456 0 c-251 0 -454 2 -452 5 3 2
191 36 418 74 310 52 418 74 432 87 27 24 21 72 -11 95 -25 18 -33 17 -470
-56 -245 -41 -452 -75 -460 -74 -8 0 165 65 385 146 220 80 408 152 418 161
25 22 22 77 -5 96 -12 9 -29 16 -36 16 -8 0 -231 -79 -495 -175 -264 -96 -482
-173 -484 -172 -2 2 168 118 377 257 404 269 410 274 379 329 -35 62 -27 65
-693 -378 -570 -380 -619 -411 -658 -411 -40 0 -89 31 -658 410 -415 277 -623
410 -641 410 -14 0 -33 -8 -42 -18z m1163 -1072 l-70 -140 -730 0 -730 0 0 40
0 40 252 0 c281 0 288 2 288 66 0 61 -13 64 -292 64 l-248 0 0 35 0 35 800 0
800 0 -70 -140z m1890 105 l0 -35 -285 0 -286 0 -25 -26 c-20 -19 -24 -31 -19
-52 3 -15 11 -31 16 -37 6 -6 127 -12 302 -15 l292 -5 0 -35 0 -35 -730 -3
-730 -2 -68 135 c-37 74 -67 137 -67 140 0 3 360 5 800 5 l800 0 0 -35z m130
-445 l0 -70 -1845 0 -1845 0 0 70 0 70 1845 0 1845 0 0 -70z"/>
<path d="M1572 1728 c-29 -15 -39 -55 -21 -87 l15 -26 338 -3 c378 -3 376 -3
376 64 0 63 -6 64 -365 63 -210 0 -328 -4 -343 -11z"/>
<path d="M3066 1719 c-29 -23 -33 -54 -10 -87 15 -22 17 -22 289 -22 272 0
274 0 289 22 23 33 19 64 -10 87 -25 20 -39 21 -279 21 -240 0 -254 -1 -279
-21z"/>
</g>
</svg>
